HIERARCHY
ROOT Hip
{
	OFFSET -1.467917 -1.848279 -0.039926
	CHANNELS 6 Xposition Yposition Zposition Xrotation Yrotation Zrotation
	JOINT LowerSpine
	{
		OFFSET 0.045234 0.147948 0.259863
		CHANNELS 6 Xposition Yposition Zposition Xrotation Yrotation Zrotation
		JOINT MiddleSpine
		{
			OFFSET -0.003288 -0.010640 0.237155
			CHANNELS 3 Xrotation Yrotation Zrotation
			JOINT Chest
			{
				OFFSET 0.017170 0.056243 0.293445
				CHANNELS 3 Xrotation Yrotation Zrotation
				JOINT Neck
				{
					OFFSET 0.003552 0.011901 0.661278
					CHANNELS 6 Xposition Yposition Zposition Xrotation Yrotation Zrotation
					JOINT Head
					{
						OFFSET -0.029761 -0.097089 0.373440
						CHANNELS 3 Xrotation Yrotation Zrotation
						End Site
						{
							OFFSET -0.000474 -0.001526 0.053628
						}
					}
				}
				JOINT LClavicle
				{
					OFFSET -0.000185 -0.205681 0.638189
					CHANNELS 6 Xposition Yposition Zposition Xrotation Yrotation Zrotation
					JOINT LShoulder
					{
						OFFSET 0.378994 0.038935 0.091570
						CHANNELS 3 Xrotation Yrotation Zrotation
						JOINT LForearm
						{
							OFFSET 0.794344 -0.235546 -0.002831
							CHANNELS 3 Xrotation Yrotation Zrotation
							JOINT LHand
							{
								OFFSET 0.662109 -0.198262 0.002094
								CHANNELS 3 Xrotation Yrotation Zrotation
								JOINT LFinger1
								{
									OFFSET 0.234374 -0.149516 0.023467
									CHANNELS 6 Xposition Yposition Zposition Xrotation Yrotation Zrotation
									JOINT LFinger11
									{
										OFFSET 0.090648 -0.046200 -0.024419
										CHANNELS 3 Xrotation Yrotation Zrotation
										JOINT LFinger12
										{
											OFFSET 0.061882 -0.031544 -0.016673
											CHANNELS 3 Xrotation Yrotation Zrotation
											End Site
											{
												OFFSET 0.046168 -0.022746 -0.015156
											}
										}
									}
								}
								JOINT LFinger2
								{
									OFFSET 0.258071 -0.085736 0.027089
									CHANNELS 6 Xposition Yposition Zposition Xrotation Yrotation Zrotation
									JOINT LFinger21
									{
										OFFSET 0.118678 -0.035549 0.000360
										CHANNELS 3 Xrotation Yrotation Zrotation
										JOINT LFinger22
										{
											OFFSET 0.065787 -0.019693 0.000219
											CHANNELS 3 Xrotation Yrotation Zrotation
											End Site
											{
												OFFSET 0.051156 -0.015729 -0.003774
											}
										}
									}
								}
								JOINT LFinger3
								{
									OFFSET 0.264208 -0.017096 0.018083
									CHANNELS 6 Xposition Yposition Zposition Xrotation Yrotation Zrotation
									JOINT LFinger31
									{
										OFFSET 0.109555 -0.026161 -0.005678
										CHANNELS 3 Xrotation Yrotation Zrotation
										JOINT LFinger32
										{
											OFFSET 0.062433 -0.014896 -0.003215
											CHANNELS 3 Xrotation Yrotation Zrotation
											End Site
											{
												OFFSET 0.051601 -0.013161 -0.006533
											}
										}
									}
								}
								JOINT LFinger4
								{
									OFFSET 0.259429 0.030705 -0.018145
									CHANNELS 6 Xposition Yposition Zposition Xrotation Yrotation Zrotation
									JOINT LFinger41
									{
										OFFSET 0.071706 -0.001980 -0.014412
										CHANNELS 3 Xrotation Yrotation Zrotation
										JOINT LFinger42
										{
											OFFSET 0.052585 -0.001444 -0.010554
											CHANNELS 3 Xrotation Yrotation Zrotation
											End Site
											{
												OFFSET 0.051696 -0.003698 -0.013873
											}
										}
									}
								}
								JOINT LFinger0
								{
									OFFSET 0.040700 -0.056387 -0.041932
									CHANNELS 6 Xposition Yposition Zposition Xrotation Yrotation Zrotation
									JOINT LFinger01
									{
										OFFSET 0.075898 -0.104569 -0.033862
										CHANNELS 3 Xrotation Yrotation Zrotation
										JOINT LFinger02
										{
											OFFSET 0.050643 -0.066682 -0.024297
											CHANNELS 3 Xrotation Yrotation Zrotation
											End Site
											{
												OFFSET 0.032191 -0.040344 -0.014652
											}
										}
									}
								}
							}
						}
					}
				}
				JOINT RClavicle
				{
					OFFSET -0.115097 -0.170520 0.638173
					CHANNELS 6 Xposition Yposition Zposition Xrotation Yrotation Zrotation
					JOINT RShoulder
					{
						OFFSET -0.292390 0.244392 0.091496
						CHANNELS 3 Xrotation Yrotation Zrotation
						JOINT RForearm
						{
							OFFSET -0.790143 0.249275 -0.003045
							CHANNELS 3 Xrotation Yrotation Zrotation
							JOINT RHand
							{
								OFFSET -0.659686 0.206182 0.001916
								CHANNELS 3 Xrotation Yrotation Zrotation
								JOINT RFinger1
								{
									OFFSET -0.277918 0.007236 0.023401
									CHANNELS 6 Xposition Yposition Zposition Xrotation Yrotation Zrotation
									JOINT RFinger11
									{
										OFFSET -0.100973 0.012432 -0.024444
										CHANNELS 3 Xrotation Yrotation Zrotation
										JOINT RFinger12
										{
											OFFSET -0.068934 0.008483 -0.016696
											CHANNELS 3 Xrotation Yrotation Zrotation
											End Site
											{
												OFFSET -0.050987 0.006982 -0.015169
											}
										}
									}
								}
								JOINT RFinger2
								{
									OFFSET -0.261867 0.073352 0.027019
									CHANNELS 6 Xposition Yposition Zposition Xrotation Yrotation Zrotation
									JOINT RFinger21
									{
										OFFSET -0.118250 0.036947 0.000331
										CHANNELS 3 Xrotation Yrotation Zrotation
										JOINT RFinger22
										{
											OFFSET -0.065543 0.020494 0.000201
											CHANNELS 3 Xrotation Yrotation Zrotation
											End Site
											{
												OFFSET -0.051198 0.015589 -0.003787
											}
										}
									}
								}
								JOINT RFinger3
								{
									OFFSET -0.228541 0.133676 0.018020
									CHANNELS 6 Xposition Yposition Zposition Xrotation Yrotation Zrotation
									JOINT RFinger31
									{
										OFFSET -0.105434 0.039622 -0.005707
										CHANNELS 3 Xrotation Yrotation Zrotation
										JOINT RFinger32
										{
											OFFSET -0.060081 0.022591 -0.003231
											CHANNELS 3 Xrotation Yrotation Zrotation
											End Site
											{
												OFFSET -0.050129 0.017967 -0.006547
											}
										}
									}
								}
								JOINT RFinger4
								{
									OFFSET -0.197823 0.170615 -0.018207
									CHANNELS 6 Xposition Yposition Zposition Xrotation Yrotation Zrotation
									JOINT RFinger41
									{
										OFFSET -0.060535 0.038482 -0.014430
										CHANNELS 3 Xrotation Yrotation Zrotation
										JOINT RFinger42
										{
											OFFSET -0.044387 0.028227 -0.010563
											CHANNELS 3 Xrotation Yrotation Zrotation
											End Site
											{
												OFFSET -0.044910 0.025862 -0.013886
											}
										}
									}
								}
								JOINT RFinger0
								{
									OFFSET -0.065272 -0.023958 -0.041943
									CHANNELS 6 Xposition Yposition Zposition Xrotation Yrotation Zrotation
									JOINT RFinger01
									{
										OFFSET -0.121410 -0.044200 -0.033894
										CHANNELS 3 Xrotation Yrotation Zrotation
										JOINT RFinger02
										{
											OFFSET -0.079279 -0.026928 -0.024312
											CHANNELS 3 Xrotation Yrotation Zrotation
											End Site
											{
												OFFSET -0.049251 -0.015425 -0.014663
											}
										}
									}
								}
							}
						}
					}
				}
			}
		}
	}
	JOINT RThigh
	{
		OFFSET -0.286452 0.114016 0.117427
		CHANNELS 6 Xposition Yposition Zposition Xrotation Yrotation Zrotation
		JOINT RShin
		{
			OFFSET -0.021147 0.006388 -1.209172
			CHANNELS 3 Xrotation Yrotation Zrotation
			JOINT RFoot
			{
				OFFSET 0.000124 -0.000119 -1.187331
				CHANNELS 3 Xrotation Yrotation Zrotation
				JOINT RToe
				{
					OFFSET -0.079831 -0.260959 -0.130479
					CHANNELS 3 Xrotation Yrotation Zrotation
					End Site
					{
						OFFSET -0.015698 -0.051304 0.000004
					}
				}
			}
		}
	}
	JOINT LThigh
	{
		OFFSET 0.301175 -0.065786 0.117515
		CHANNELS 6 Xposition Yposition Zposition Xrotation Yrotation Zrotation
		JOINT LShin
		{
			OFFSET 0.021398 -0.006630 -1.209175
			CHANNELS 3 Xrotation Yrotation Zrotation
			JOINT LFoot
			{
				OFFSET 0.000124 -0.000119 -1.187332
				CHANNELS 3 Xrotation Yrotation Zrotation
				JOINT LToe
				{
					OFFSET -0.079831 -0.260962 -0.130481
					CHANNELS 3 Xrotation Yrotation Zrotation
					End Site
					{
						OFFSET -0.015698 -0.051304 0.000004
					}
				}
			}
		}
	}
}
MOTION
Frames: 4
Frame Time: 0.041667
-1.813551 -0.062305 2.123547 -7.141188 -15.478021 -128.650178 0.045234 0.147948 0.259863 0.000003 -0.000003 -0.000007 -3.867530 -1.199756 -3.724596 -13.132890 -2.981587 -12.666841 0.003552 0.011901 0.661278 -7.974224 -2.930126 -1.627480 -1.838981 -2.826265 -0.139218 -0.000186 -0.205681 0.638189 0.773182 2.528071 -0.017283 38.608959 -18.001449 -20.247391 0.030517 -0.333395 -147.146631 -0.000010 0.000008 -0.000005 0.234374 -0.149515 0.023467 -0.000027 0.000001 -0.000049 -0.000013 -0.000019 0.000079 -0.000002 -0.000006 -0.000011 0.258071 -0.085736 0.027089 -0.000019 -0.000006 -0.000034 -0.000023 -0.000006 -0.000004 -0.000071 -0.000002 -0.000096 0.264208 -0.017096 0.018083 -0.000015 0.000007 -0.000027 -0.000016 -0.000009 -0.000017 -0.000006 0.000008 -0.000020 0.259429 0.030705 -0.018145 -0.000026 -0.000005 -0.000038 0.000000 -0.000019 -0.000012 0.000004 -0.000035 -0.000011 0.040700 -0.056388 -0.041931 -0.000012 0.000014 -0.000043 0.000029 -0.000003 -0.000064 0.000038 0.000067 -0.000005 -0.115097 -0.170521 0.638174 -0.307025 -0.999037 -0.004789 17.949645 -14.595040 -9.804769 -0.000018 0.000003 0.097580 -0.000006 -0.000012 0.000002 -0.277918 0.007236 0.023400 0.000022 -0.000002 -0.000053 -0.000024 -0.000032 0.000074 -0.000000 -0.000025 -0.000019 -0.261866 0.073352 0.027019 0.000026 0.000006 -0.000037 0.000036 0.000171 0.000234 0.000002 0.000009 -0.000023 -0.228542 0.133676 0.018019 0.000026 0.000006 -0.000039 0.000024 -0.000042 -0.000081 -0.000006 0.000024 -0.000006 -0.197824 0.170616 -0.018208 0.000017 0.000010 -0.000029 -0.000001 -0.000001 0.000008 -0.000058 0.000077 0.000142 -0.065272 -0.023958 -0.041943 0.000034 -0.000012 -0.000015 -0.000034 0.000052 0.000009 0.000008 -0.000003 0.000006 -0.288081 0.120794 0.140249 4.578312 2.449202 0.415096 7.516242 -2.291936 0.151594 0.395666 0.237711 -0.720733 -15.627715 4.712375 0.644819 0.282117 0.013521 0.384276 -13.923355 -8.156895 3.031693 -0.351576 0.107563 0.000280 -2.909928 1.169689 -0.502057 0.000007 0.000001 -0.000018 
-1.813551 -0.062305 2.123547 -7.141188 -15.478021 -128.650178 0.045234 0.147948 0.259863 0.000003 -0.000003 -0.000007 -3.867530 -1.199756 -3.724596 -13.132890 -2.981587 -12.666841 0.003552 0.011901 0.661278 -7.974224 -2.930126 -1.627480 -1.838981 -2.826265 -0.139218 -0.000186 -0.205681 0.638189 0.773182 2.528071 -0.017283 38.608959 -18.001449 -20.247391 0.030517 -0.333395 -147.146631 -0.000010 0.000008 -0.000005 0.234374 -0.149515 0.023467 -0.000027 0.000001 -0.000049 -0.000013 -0.000019 0.000079 -0.000002 -0.000006 -0.000011 0.258071 -0.085736 0.027089 -0.000019 -0.000006 -0.000034 -0.000023 -0.000006 -0.000004 -0.000071 -0.000002 -0.000096 0.264208 -0.017096 0.018083 -0.000015 0.000007 -0.000027 -0.000016 -0.000009 -0.000017 -0.000006 0.000008 -0.000020 0.259429 0.030705 -0.018145 -0.000026 -0.000005 -0.000038 0.000000 -0.000019 -0.000012 0.000004 -0.000035 -0.000011 0.040700 -0.056388 -0.041931 -0.000012 0.000014 -0.000043 0.000029 -0.000003 -0.000064 0.000038 0.000067 -0.000005 -0.115097 -0.170521 0.638174 -0.307025 -0.999037 -0.004789 17.949645 -14.595040 -9.804769 -0.000018 0.000003 0.097580 -0.000006 -0.000012 0.000002 -0.277918 0.007236 0.023400 0.000022 -0.000002 -0.000053 -0.000024 -0.000032 0.000074 -0.000000 -0.000025 -0.000019 -0.261866 0.073352 0.027019 0.000026 0.000006 -0.000037 0.000036 0.000171 0.000234 0.000002 0.000009 -0.000023 -0.228542 0.133676 0.018019 0.000026 0.000006 -0.000039 0.000024 -0.000042 -0.000081 -0.000006 0.000024 -0.000006 -0.197824 0.170616 -0.018208 0.000017 0.000010 -0.000029 -0.000001 -0.000001 0.000008 -0.000058 0.000077 0.000142 -0.065272 -0.023958 -0.041943 0.000034 -0.000012 -0.000015 -0.000034 0.000052 0.000009 0.000008 -0.000003 0.000006 -0.288081 0.120794 0.140249 4.578312 2.449202 0.415096 7.516242 -2.291936 0.151594 0.395666 0.237711 -0.720733 -15.627715 4.712375 0.644819 0.282117 0.013521 0.384276 -13.923355 -8.156895 3.031693 -0.351576 0.107563 0.000280 -2.909928 1.169689 -0.502057 0.000007 0.000001 -0.000018 
-1.817306 -0.063469 2.124494 -7.285873 -15.078134 -129.168494 0.045234 0.147948 0.259863 -0.000002 -0.000004 -0.000007 -3.854891 -1.161301 -3.569301 -13.085758 -2.905994 -12.150802 0.003553 0.011900 0.661278 -7.691208 -2.765499 -1.538066 -1.446327 -3.692617 -0.169055 -0.000185 -0.205681 0.638189 0.773153 2.532994 -0.019426 38.174614 -17.047138 -20.035144 0.028813 -0.333329 -147.026133 -0.000011 0.000012 -0.000002 0.234374 -0.149516 0.023467 -0.000026 -0.000003 -0.000050 -0.000014 -0.000021 0.000080 -0.000006 -0.000006 -0.000013 0.258071 -0.085736 0.027089 -0.000015 -0.000008 -0.000039 -0.000028 -0.000004 -0.000006 -0.000071 -0.000000 -0.000095 0.264208 -0.017096 0.018083 -0.000012 0.000006 -0.000035 -0.000016 -0.000011 -0.000011 -0.000006 0.000005 -0.000020 0.259429 0.030705 -0.018145 -0.000023 -0.000007 -0.000044 0.000002 -0.000018 -0.000012 0.000005 -0.000036 -0.000006 0.040700 -0.056388 -0.041931 -0.000014 0.000010 -0.000044 0.000021 -0.000003 -0.000061 0.000036 0.000066 -0.000003 -0.115097 -0.170521 0.638174 -0.310562 -1.004421 -0.006172 17.264299 -14.213608 -10.148001 -0.000049 -0.000035 0.090854 -0.000007 -0.000012 0.000005 -0.277918 0.007237 0.023401 0.000026 -0.000006 -0.000053 -0.000025 -0.000035 0.000071 -0.000000 -0.000026 -0.000015 -0.261867 0.073352 0.027019 0.000025 0.000005 -0.000038 0.000030 0.000172 0.000239 0.000001 0.000010 -0.000020 -0.228542 0.133676 0.018020 0.000024 0.000006 -0.000039 0.000021 -0.000040 -0.000083 -0.000003 0.000023 -0.000009 -0.197824 0.170616 -0.018207 0.000018 0.000010 -0.000025 -0.000002 -0.000001 0.000006 -0.000060 0.000077 0.000146 -0.065273 -0.023959 -0.041943 0.000035 -0.000013 -0.000014 -0.000032 0.000053 0.000007 0.000012 -0.000004 0.000004 -0.288080 0.120795 0.140311 4.541231 3.097835 0.498516 8.157547 -2.485978 0.178406 0.661648 0.141245 -0.698268 -16.225724 4.887123 0.694787 0.282118 0.013521 0.384277 -13.524230 -7.908169 3.351568 -0.301288 0.092176 0.000193 -3.043993 1.023908 -0.149255 0.000010 0.000002 -0.000013 
-1.818807 -0.064336 2.125113 -7.341335 -14.929187 -129.358469 0.045234 0.147948 0.259863 0.000000 -0.000005 -0.000003 -3.844571 -1.153927 -3.518712 -13.066527 -2.912285 -11.990631 0.003552 0.011900 0.661278 -7.552209 -2.767804 -1.523621 -1.279883 -3.912895 -0.171085 -0.000186 -0.205681 0.638189 0.772222 2.529651 -0.018562 38.107845 -16.754094 -19.986909 0.026847 -0.333022 -146.960276 -0.000010 0.000007 -0.000001 0.234374 -0.149516 0.023468 -0.000030 0.000001 -0.000053 -0.000015 -0.000020 0.000083 -0.000006 -0.000006 -0.000016 0.258071 -0.085735 0.027089 -0.000021 -0.000007 -0.000037 -0.000026 -0.000002 -0.000002 -0.000073 -0.000002 -0.000101 0.264208 -0.017096 0.018083 -0.000016 0.000006 -0.000032 -0.000017 -0.000008 -0.000013 -0.000003 0.000005 -0.000018 0.259429 0.030705 -0.018145 -0.000029 -0.000006 -0.000043 -0.000000 -0.000016 -0.000010 0.000002 -0.000037 -0.000005 0.040700 -0.056388 -0.041931 -0.000018 0.000014 -0.000048 0.000025 0.000003 -0.000061 0.000039 0.000071 -0.000009 -0.115097 -0.170521 0.638174 -0.312495 -1.011554 -0.007582 17.033959 -14.037437 -10.258254 -0.000119 -0.000124 0.076965 -0.000004 -0.000014 -0.000002 -0.277918 0.007236 0.023401 0.000026 -0.000005 -0.000052 -0.000026 -0.000033 0.000070 0.000003 -0.000030 -0.000020 -0.261867 0.073352 0.027019 0.000026 0.000006 -0.000038 0.000033 0.000172 0.000236 0.000004 0.000008 -0.000020 -0.228542 0.133676 0.018020 0.000025 0.000007 -0.000041 0.000025 -0.000039 -0.000079 -0.000003 0.000022 -0.000009 -0.197823 0.170615 -0.018207 0.000022 0.000009 -0.000027 -0.000003 0.000001 0.000011 -0.000060 0.000077 0.000143 -0.065272 -0.023959 -0.041943 0.000035 -0.000011 -0.000019 -0.000036 0.000053 0.000008 0.000008 -0.000004 0.000005 -0.288080 0.120796 0.140417 4.402466 3.380412 0.641574 8.632765 -2.629532 0.199680 0.640643 0.055448 -0.508933 -16.516415 4.971840 0.719711 0.282118 0.013521 0.384278 -13.418721 -7.781284 3.484449 -0.202733 0.062020 0.000075 -3.120426 0.970416 -0.004716 0.000008 0.000001 -0.000015 
